# xmcd CD database file
#
# Track frame offsets:
#	150
#	13972
#	35432
#	54188
#	67076
#	90070
#	105136
#	121564
#	134519
#
# Disc length: 2005 seconds
#
# Revision: 0
# Processed by: cddbd v1.5PL3 Copyright (c) Steve Scherf et al.
# Submitted via: CDex 1.50
#
DISCID=6407d309
DTITLE=Unnerhaus Jazzband - Doctor Jazz (Die Erste)
DYEAR=1989
DGENRE=Jazz
TTITLE0=Bourbon Street Parade
TTITLE1=Cabaret
TTITLE2=Nobody knows you when you´re down and out
TTITLE3=Margie
TTITLE4=Summertime
TTITLE5=Alexander´s Ragtime Band
TTITLE6=See See Rider
TTITLE7=Doctor Jazz
TTITLE8=Tiger Rag
EXTD=YEAR: 1989
EXTT0=
EXTT1=
EXTT2=
EXTT3=
EXTT4=
EXTT5=
EXTT6=
EXTT7=
EXTT8=
PLAYORDER=
